# xmcd
#
# Track frame offsets:
#	150
#	11250
#	22400
#	38110
#	51552
#	61597
#	72385
#	83415
#	93697
#	107190
#	121080
#	134917
#
# Disc length: 1930 seconds
#
# Revision: 0
# Processed by: cddbd v1.5.2PL0 Copyright (c) Steve Scherf et al.
# Submitted via: dBpowerAMP V4.0
#
DISCID=a607880c
DTITLE=Vilas Dahl - Country Gospel Fiddle
DYEAR=2001
DGENRE=Polka
TTITLE0=I'll Fly Away
TTITLE1=Wings Of A Dove
TTITLE2=Precious Memories
TTITLE3=In The Garden
TTITLE4=Will The Circle Be Unbroken
TTITLE5=Amazing Grace
TTITLE6=I Saw The Light
TTITLE7=Great Speckled Bird
TTITLE8=One Day At A Time
TTITLE9=What A Friend We Have In Jesus
TTITLE10=Star Of Bethlehem
TTITLE11=Little Brown Church
EXTD=Country Gospel Fiddle
EXTT0=
EXTT1=
EXTT2=
EXTT3=
EXTT4=
EXTT5=
EXTT6=
EXTT7=
EXTT8=
EXTT9=
EXTT10=
EXTT11=
PLAYORDER=
